<svg width="766" height="252" viewBox="0 0 766 252" fill="none" xmlns="http://www.w3.org/2000/svg">
<rect y="2" width="765" height="250" fill="url(#paint0_linear_575_52)"/>
<path d="M95.5 79.5L19.5 2H0V210L95.5 111.5C107 99.5 107 90.5 95.5 79.5Z" fill="url(#paint1_linear_575_52)"/>
<path d="M228 157L397 2L228 2L20 2L178 157C190 168.5 217 168.5 228 157Z" fill="url(#paint2_linear_575_52)" fill-opacity="0.8"/>
<path d="M95.5 112.5L0 210.5L0 252L280 252L131.5 112.5C119.5 98.6945 106.5 98.6945 95.5 112.5Z" fill="url(#paint3_linear_575_52)"/>
<path d="M469.5 97.5L569.5 2L544 2L304.5 2L405 97.5C417 109 458.5 109 469.5 97.5Z" fill="url(#paint4_linear_575_52)"/>
<path opacity="0.22" d="M205.825 16.9996L96 119.153V252H371.061L409 215.551C425.5 199 425.5 181.5 409 163.755L252.75 16.9996C232.5 -2.49995 216.5 7.50001 205.825 16.9996Z" fill="url(#paint5_linear_575_52)" fill-opacity="0.7"/>
<path opacity="0.22" d="M558.522 71.5839L478.5 161.5C478.5 161.5 445.5 197.585 445.5 217.5C445.5 237.415 463 252 463 252H702.238H764C764 232 758 206.5 735.237 184.252L608 71.5839C590.388 56.6136 567.807 64.2908 558.522 71.5839Z" fill="white"/>
<path d="M547.304 162.5C493.81 206.5 525.807 238.5 547.304 252H765.304V0H709.804L547.304 162.5Z" fill="url(#paint6_linear_575_52)"/>
<defs>
<linearGradient id="paint0_linear_575_52" x1="0" y1="127" x2="1084" y2="127" gradientUnits="userSpaceOnUse">
<stop offset="0.0162305" stop-color="white"/>
<stop offset="0.708573" stop-color="#F2F2F2"/>
<stop offset="1" stop-color="#8C8C8C"/>
</linearGradient>
<linearGradient id="paint1_linear_575_52" x1="-30.5" y1="106" x2="188.5" y2="102.5" gradientUnits="userSpaceOnUse">
<stop stop-color="white"/>
<stop offset="0.803335" stop-color="#F2F2F2"/>
<stop offset="1" stop-color="#8C8C8C"/>
</linearGradient>
<linearGradient id="paint2_linear_575_52" x1="124" y1="-28.5" x2="127.5" y2="190.5" gradientUnits="userSpaceOnUse">
<stop stop-color="white"/>
<stop offset="0.895712" stop-color="#F2F2F2"/>
<stop offset="1" stop-color="#8C8C8C"/>
</linearGradient>
<linearGradient id="paint3_linear_575_52" x1="35" y1="155.5" x2="388.054" y2="249.927" gradientUnits="userSpaceOnUse">
<stop stop-color="white"/>
<stop offset="0.803335" stop-color="#F2F2F2"/>
<stop offset="1" stop-color="#8C8C8C"/>
</linearGradient>
<linearGradient id="paint4_linear_575_52" x1="462.5" y1="169.5" x2="462.5" y2="-101.5" gradientUnits="userSpaceOnUse">
<stop offset="0.294049" stop-color="white"/>
<stop offset="0.89166" stop-color="#F2F2F2"/>
<stop offset="1" stop-color="#8C8C8C"/>
</linearGradient>
<linearGradient id="paint5_linear_575_52" x1="96" y1="252" x2="363.5" y2="10.5" gradientUnits="userSpaceOnUse">
<stop stop-color="white"/>
<stop offset="0.606438" stop-color="#F2F2F2"/>
<stop offset="1" stop-color="#8C8C8C"/>
</linearGradient>
<linearGradient id="paint6_linear_575_52" x1="773" y1="74" x2="502" y2="242" gradientUnits="userSpaceOnUse">
<stop stop-color="white" stop-opacity="0.1"/>
<stop offset="0.960059" stop-color="#F2F2F2" stop-opacity="0.7"/>
<stop offset="1" stop-color="#8C8C8C"/>
</linearGradient>
</defs>
</svg>
