<svg width="386" height="357" viewBox="0 0 386 357" fill="none" xmlns="http://www.w3.org/2000/svg">
<path d="M87.6695 345.441C87.6695 345.441 135.67 370.371 190.46 344.091C245.25 317.811 263.03 266.891 291.51 228.591C306.41 208.591 330.79 197.391 349.38 180.531C408.84 126.651 387.38 36.5308 332.99 11.8408C285.9 -9.55917 231.5 -1.88917 164.09 34.3408C96.6795 70.5708 48.0895 93.9508 12.7195 166.151C-22.6505 238.351 28.0295 310.511 87.6695 345.441Z" fill="#3A1C60"/>
<path opacity="0.7" d="M87.6695 345.441C87.6695 345.441 135.67 370.371 190.46 344.091C245.25 317.811 263.03 266.891 291.51 228.591C306.41 208.591 330.79 197.391 349.38 180.531C408.84 126.651 387.38 36.5308 332.99 11.8408C285.9 -9.55917 231.5 -1.88917 164.09 34.3408C96.6795 70.5708 48.0895 93.9508 12.7195 166.151C-22.6505 238.351 28.0295 310.511 87.6695 345.441Z" fill="white"/>
<path d="M78.7596 128.151C96.383 128.151 110.67 113.864 110.67 96.2408C110.67 78.6174 96.383 64.3308 78.7596 64.3308C61.1362 64.3308 46.8496 78.6174 46.8496 96.2408C46.8496 113.864 61.1362 128.151 78.7596 128.151Z" stroke="#263238" stroke-width="1.23197" stroke-linecap="round" stroke-linejoin="round"/>
<path d="M82.8883 122.346C97.3125 120.072 107.162 106.535 104.888 92.1111C102.614 77.6868 89.0767 67.8373 74.6525 70.1116C60.2283 72.3858 50.3788 85.9226 52.6531 100.347C54.9273 114.771 68.4641 124.621 82.8883 122.346Z" stroke="#263238" stroke-width="1.23197" stroke-linecap="round" stroke-linejoin="round"/>
<path d="M61.8896 96.2407H78.7597V120.571" stroke="#263238" stroke-width="1.23197" stroke-linecap="round" stroke-linejoin="round"/>
<path d="M225.78 339.831C225.78 338.773 226.094 337.738 226.681 336.859C227.269 335.979 228.105 335.293 229.082 334.888C230.06 334.483 231.136 334.377 232.174 334.584C233.211 334.79 234.165 335.3 234.913 336.048C235.661 336.796 236.171 337.749 236.377 338.787C236.583 339.825 236.477 340.901 236.073 341.878C235.668 342.856 234.982 343.691 234.102 344.279C233.222 344.867 232.188 345.181 231.13 345.181C230.427 345.182 229.731 345.045 229.081 344.776C228.431 344.508 227.841 344.114 227.344 343.617C226.847 343.12 226.453 342.53 226.184 341.88C225.916 341.23 225.778 340.534 225.78 339.831Z" fill="#263238" stroke="#263238" stroke-width="1.23197" stroke-linecap="round" stroke-linejoin="round"/>
<path d="M228.45 339.831C228.448 339.3 228.603 338.781 228.897 338.339C229.19 337.897 229.608 337.552 230.097 337.348C230.587 337.143 231.126 337.089 231.646 337.191C232.167 337.293 232.645 337.548 233.021 337.922C233.397 338.297 233.653 338.774 233.757 339.294C233.862 339.814 233.809 340.354 233.607 340.844C233.404 341.334 233.061 341.754 232.62 342.048C232.179 342.343 231.66 342.501 231.13 342.501C230.421 342.501 229.74 342.22 229.238 341.719C228.736 341.219 228.452 340.54 228.45 339.831Z" fill="white" stroke="#263238" stroke-width="1.23197" stroke-linecap="round" stroke-linejoin="round"/>
<path d="M168.47 339.831C168.47 338.773 168.784 337.738 169.371 336.859C169.959 335.979 170.795 335.293 171.772 334.888C172.75 334.483 173.826 334.377 174.863 334.584C175.901 334.79 176.855 335.3 177.603 336.048C178.351 336.796 178.86 337.749 179.067 338.787C179.273 339.825 179.167 340.901 178.762 341.878C178.358 342.856 177.672 343.691 176.792 344.279C175.912 344.867 174.878 345.181 173.82 345.181C173.117 345.181 172.421 345.043 171.772 344.774C171.123 344.505 170.533 344.111 170.037 343.614C169.54 343.117 169.146 342.527 168.877 341.878C168.608 341.229 168.47 340.534 168.47 339.831Z" fill="#263238" stroke="#263238" stroke-width="1.23197" stroke-linecap="round" stroke-linejoin="round"/>
<path d="M171.15 339.831C171.148 339.3 171.304 338.78 171.597 338.338C171.891 337.896 172.31 337.551 172.8 337.347C173.29 337.143 173.83 337.089 174.35 337.192C174.871 337.295 175.35 337.55 175.725 337.926C176.1 338.301 176.356 338.78 176.459 339.3C176.562 339.821 176.508 340.361 176.304 340.851C176.1 341.341 175.755 341.76 175.313 342.053C174.87 342.347 174.351 342.503 173.82 342.501C173.113 342.498 172.435 342.216 171.935 341.716C171.435 341.216 171.153 340.538 171.15 339.831Z" fill="white" stroke="#263238" stroke-width="1.23197" stroke-linecap="round" stroke-linejoin="round"/>
<path d="M149.75 339.831C149.75 338.773 150.063 337.738 150.651 336.859C151.239 335.979 152.075 335.293 153.052 334.888C154.03 334.483 155.105 334.377 156.143 334.584C157.181 334.79 158.134 335.3 158.883 336.048C159.631 336.796 160.14 337.749 160.347 338.787C160.553 339.825 160.447 340.901 160.042 341.878C159.637 342.856 158.952 343.691 158.072 344.279C157.192 344.867 156.158 345.181 155.1 345.181C154.397 345.182 153.7 345.045 153.051 344.776C152.401 344.508 151.811 344.114 151.314 343.617C150.817 343.12 150.422 342.53 150.154 341.88C149.886 341.23 149.748 340.534 149.75 339.831Z" fill="#263238" stroke="#263238" stroke-width="1.23197" stroke-linecap="round" stroke-linejoin="round"/>
<path d="M152.419 339.831C152.417 339.3 152.573 338.781 152.866 338.339C153.16 337.897 153.577 337.552 154.067 337.348C154.556 337.143 155.096 337.089 155.616 337.191C156.137 337.293 156.615 337.548 156.991 337.922C157.367 338.297 157.623 338.774 157.727 339.294C157.831 339.814 157.779 340.354 157.576 340.844C157.374 341.334 157.03 341.754 156.589 342.048C156.148 342.343 155.63 342.501 155.099 342.501C154.39 342.501 153.71 342.22 153.208 341.719C152.706 341.219 152.422 340.54 152.419 339.831Z" fill="white" stroke="#263238" stroke-width="1.23197" stroke-linecap="round" stroke-linejoin="round"/>
<path d="M193.43 333.711H182.12V275.811H193.4V333.711H193.43Z" fill="#263238" stroke="#263238" stroke-width="1.23197" stroke-linecap="round" stroke-linejoin="round"/>
<path d="M179.11 333.711H196.45V292.801H179.11V333.711Z" fill="#263238" stroke="#263238" stroke-width="1.23197" stroke-linecap="round" stroke-linejoin="round"/>
<path d="M213.85 266.101H199.37V234.961H213.88V266.051L213.85 266.101Z" fill="#263238" stroke="#263238" stroke-width="1.23197" stroke-linecap="round" stroke-linejoin="round"/>
<path d="M177.95 234.891H234.61C235.934 234.89 237.245 234.624 238.465 234.109C239.686 233.594 240.79 232.84 241.715 231.891C242.639 230.943 243.364 229.819 243.848 228.585C244.331 227.352 244.563 226.035 244.53 224.711L243.17 169.401C243.105 166.811 242.03 164.349 240.175 162.54C238.319 160.732 235.831 159.72 233.24 159.721H186.46C184.087 159.72 181.792 160.568 179.991 162.113C178.189 163.657 177.001 165.796 176.64 168.141L168.14 223.451C167.922 224.866 168.013 226.311 168.406 227.687C168.799 229.063 169.485 230.338 170.416 231.425C171.348 232.511 172.504 233.384 173.804 233.982C175.104 234.58 176.519 234.89 177.95 234.891Z" fill="#3A1C60" stroke="#263238" stroke-width="1.23197" stroke-linecap="round" stroke-linejoin="round"/>
<path d="M196.47 277.801L221.32 294.171" stroke="#263238" stroke-width="1.23197" stroke-linecap="round" stroke-linejoin="round"/>
<path d="M222.26 291.691L226.5 294.541C226.84 294.773 227.125 295.077 227.334 295.432C227.542 295.787 227.67 296.184 227.707 296.594C227.745 297.004 227.691 297.417 227.549 297.804C227.408 298.191 227.183 298.542 226.89 298.831L226.59 299.111C226.102 299.59 225.454 299.871 224.771 299.9C224.087 299.93 223.418 299.706 222.89 299.271L219.03 296.061C218.738 295.823 218.499 295.526 218.328 295.191C218.157 294.855 218.058 294.488 218.036 294.111C218.015 293.735 218.071 293.359 218.203 293.006C218.334 292.653 218.538 292.331 218.8 292.061C219.243 291.605 219.831 291.318 220.463 291.25C221.095 291.183 221.731 291.339 222.26 291.691Z" fill="#263238" stroke="#263238" stroke-width="1.23197" stroke-linecap="round" stroke-linejoin="round"/>
<path d="M141.7 280.631H233.85C236.207 280.631 238.469 279.694 240.136 278.027C241.803 276.36 242.74 274.099 242.74 271.741C242.74 269.383 241.803 267.122 240.136 265.455C238.469 263.787 236.207 262.851 233.85 262.851H141.7C139.342 262.851 137.081 263.787 135.413 265.455C133.746 267.122 132.81 269.383 132.81 271.741C132.81 274.099 133.746 276.36 135.413 278.027C137.081 279.694 139.342 280.631 141.7 280.631Z" fill="#3A1C60" stroke="#263238" stroke-width="1.23197" stroke-linecap="round" stroke-linejoin="round"/>
<path d="M132.87 270.661C133.2 268.478 134.31 266.488 135.994 265.06C137.678 263.632 139.822 262.861 142.03 262.891H189.83C192.05 262.853 194.209 263.624 195.902 265.062C197.595 266.499 198.707 268.504 199.03 270.701C199.186 271.953 199.074 273.223 198.701 274.429C198.329 275.634 197.704 276.746 196.869 277.692C196.034 278.637 195.008 279.395 193.858 279.914C192.708 280.432 191.461 280.701 190.2 280.701H141.7C140.434 280.701 139.184 280.432 138.031 279.911C136.878 279.39 135.849 278.629 135.013 277.679C134.178 276.729 133.554 275.611 133.185 274.401C132.815 273.191 132.708 271.916 132.87 270.661Z" fill="#3A1C60" stroke="#263238" stroke-width="1.23197" stroke-linecap="round" stroke-linejoin="round"/>
<path d="M148.03 336.941H236.51C236.507 335.656 235.995 334.425 235.086 333.518C234.176 332.61 232.944 332.101 231.66 332.101H152.87C151.586 332.101 150.355 332.611 149.447 333.518C148.54 334.426 148.03 335.657 148.03 336.941Z" fill="#263238" stroke="#263238" stroke-width="1.23197" stroke-linecap="round" stroke-linejoin="round"/>
<path d="M163.779 336.941H192.579V332.101H168.579C167.295 332.101 166.063 332.61 165.154 333.518C164.244 334.425 163.732 335.656 163.729 336.941H163.779Z" fill="#263238" stroke="#263238" stroke-width="1.23197" stroke-linecap="round" stroke-linejoin="round"/>
<path d="M157.6 225.671L151.22 236.181C151.22 236.181 128.91 238.421 116.16 241.281C103.41 244.141 100.86 258.181 100.22 261.051C99.5099 264.251 95.5599 331.141 96.8299 331.461C98.0999 331.781 107.67 332.731 107.67 332.731C107.67 332.731 123.81 267.731 128.59 266.781C133.37 265.831 204.13 267.421 214.65 261.681C225.17 255.941 227.72 239.371 221.65 227.901C215.58 216.431 157.6 225.671 157.6 225.671Z" fill="#263238" stroke="#263238" stroke-width="1.23197" stroke-linecap="round" stroke-linejoin="round"/>
<path d="M200.95 238.421C200.95 238.421 171.3 238.421 156.95 239.691C142.6 240.961 133.68 251.801 134.32 261.371C134.96 270.941 146.55 333.691 146.55 333.691L157.7 332.691L163.7 265.451C163.7 265.451 173.7 271.931 212.49 261.971" fill="#263238"/>
<path d="M200.95 238.421C200.95 238.421 171.3 238.421 156.95 239.691C142.6 240.961 133.68 251.801 134.32 261.371C134.96 270.941 146.55 333.691 146.55 333.691L157.7 332.691L163.7 265.451C163.7 265.451 173.7 271.931 212.49 261.971" stroke="#263238" stroke-width="1.23197" stroke-linecap="round" stroke-linejoin="round"/>
<path d="M270.75 136.101C269.75 135.461 266.61 143.751 266.61 143.751C264.591 143.643 262.568 143.643 260.55 143.751C257.05 144.071 254.18 148.851 254.18 152.041C254.18 155.231 239.51 180.721 239.51 180.721C239.51 180.721 226.76 159.721 222.3 156.181C217.84 152.641 201.3 149.491 201.3 149.491C194.531 148.431 187.638 148.431 180.87 149.491C180.87 149.491 164.3 152.671 159.87 156.181C155.44 159.691 142.65 180.721 142.65 180.721C142.65 180.721 127.99 155.221 127.99 152.041C127.99 148.861 125.12 144.041 121.62 143.751C119.601 143.643 117.578 143.643 115.56 143.751C115.56 143.751 112.37 135.461 111.42 136.101C110.47 136.741 112.05 146.941 113.01 149.171C113.97 151.401 121.94 152.991 121.94 152.991C121.94 152.991 131.82 190.601 135 195.701C138.18 200.801 141.7 207.181 150.3 203.351C158.9 199.521 169.75 187.101 169.75 187.101L187.94 187.381H189.31H190.46L212.46 187.101C212.46 187.101 223.3 199.531 231.9 203.351C240.5 207.171 244.02 200.801 247.2 195.701C250.38 190.601 260.23 152.991 260.23 152.991C260.23 152.991 268.23 151.401 269.16 149.171C270.09 146.941 271.71 136.741 270.75 136.101Z" fill="#9C9C9C" stroke="#263238" stroke-width="1.23197" stroke-linecap="round" stroke-linejoin="round"/>
<path d="M244.67 171.551C241.86 176.651 239.51 180.721 239.51 180.721C239.51 180.721 226.76 159.721 222.3 156.181C217.84 152.641 201.3 149.491 201.3 149.491C194.531 148.43 187.639 148.43 180.87 149.491C180.87 149.491 164.3 152.671 159.87 156.181C155.44 159.691 142.65 180.721 142.65 180.721C142.65 180.721 140.11 176.311 137.15 170.921L128.38 176.261C130.94 185.051 133.61 193.481 135 195.701C138.19 200.801 141.7 207.181 150.3 203.351C158.9 199.521 169.75 187.101 169.75 187.101L187.94 187.381H189.31H190.46L212.46 187.101C212.46 187.101 223.3 199.531 231.9 203.351C240.5 207.171 244.02 200.801 247.2 195.701C248.6 193.471 251.28 185.011 253.85 176.191L244.67 171.551Z" fill="white"/>
<mask id="mask0_45_172" style="mask-type:luminance" maskUnits="userSpaceOnUse" x="128" y="148" width="126" height="57">
<path d="M244.67 171.551C241.86 176.651 239.51 180.721 239.51 180.721C239.51 180.721 226.76 159.721 222.3 156.181C217.84 152.641 201.3 149.491 201.3 149.491C194.531 148.43 187.639 148.43 180.87 149.491C180.87 149.491 164.3 152.671 159.87 156.181C155.44 159.691 142.65 180.721 142.65 180.721C142.65 180.721 140.11 176.311 137.15 170.921L128.38 176.261C130.94 185.051 133.61 193.481 135 195.701C138.19 200.801 141.7 207.181 150.3 203.351C158.9 199.521 169.75 187.101 169.75 187.101L187.94 187.381H189.31H190.46L212.46 187.101C212.46 187.101 223.3 199.531 231.9 203.351C240.5 207.171 244.02 200.801 247.2 195.701C248.6 193.471 251.28 185.011 253.85 176.191L244.67 171.551Z" fill="white"/>
</mask>
<g mask="url(#mask0_45_172)">
<path d="M237.03 186.621C236.86 184.531 236.7 182.551 237.55 181.281C237.946 180.687 238.38 180.119 238.85 179.581L237.59 177.581C236.849 178.334 236.179 179.154 235.59 180.031C234.3 181.971 234.49 184.441 234.69 186.841C234.85 188.931 235.01 190.901 234.16 192.181C233.43 193.271 232.72 193.181 230.77 192.781C228.921 192.248 226.959 192.248 225.11 192.781C224.303 193.076 223.581 193.564 223.005 194.202C222.43 194.839 222.02 195.608 221.81 196.441C222.44 196.991 223.09 197.541 223.75 198.071C224.02 196.641 224.62 195.371 225.84 194.971C227.305 194.571 228.853 194.588 230.31 195.021C232.25 195.421 234.46 195.881 236.08 193.441C237.39 191.491 237.19 189.021 237.03 186.621Z" fill="#3A1C60"/>
<path d="M212.42 187.101L213.18 187.951C213.866 187.668 214.519 187.313 215.13 186.891C215.831 186.738 216.558 186.738 217.26 186.891C219.637 187.207 222.054 187.047 224.37 186.421C228.24 185.311 228.37 181.111 228.51 177.421C228.58 175.361 228.65 173.221 229.36 171.931C229.693 171.297 230.237 170.799 230.897 170.522C231.558 170.245 232.294 170.206 232.98 170.411C232.47 169.621 231.98 168.831 231.41 168.041C230.547 168.112 229.718 168.405 229.003 168.892C228.287 169.38 227.711 170.044 227.33 170.821C226.33 172.591 226.28 175.011 226.2 177.341C226.07 181.211 225.83 183.611 223.74 184.201C221.698 184.753 219.565 184.889 217.47 184.601C215.96 184.471 214.66 184.351 213.68 185.131C212.171 185.948 210.587 186.618 208.95 187.131L212.42 187.101Z" fill="#3A1C60"/>
<path d="M157.6 192.771C155.751 192.238 153.789 192.238 151.94 192.771C149.99 193.171 149.28 193.261 148.55 192.171C147.7 190.891 147.86 188.921 148.03 186.831C148.22 184.431 148.41 181.961 147.12 180.021C146.455 178.991 145.673 178.041 144.79 177.191L143.53 179.191C144.15 179.834 144.709 180.534 145.2 181.281C146.05 182.551 145.89 184.531 145.72 186.621C145.53 189.021 145.33 191.491 146.63 193.431C148.25 195.871 150.46 195.431 152.4 195.011C153.856 194.578 155.404 194.561 156.87 194.961C157.407 195.196 157.874 195.566 158.224 196.036C158.575 196.506 158.797 197.059 158.87 197.641C159.52 197.111 160.15 196.571 160.77 196.021C160.525 195.273 160.112 194.591 159.562 194.028C159.013 193.464 158.341 193.034 157.6 192.771Z" fill="#3A1C60"/>
<path d="M165.26 184.571C163.161 184.859 161.026 184.723 158.98 184.171C156.89 183.581 156.65 181.171 156.52 177.311C156.44 174.981 156.36 172.561 155.39 170.791C154.959 169.925 154.29 169.2 153.46 168.702C152.631 168.204 151.677 167.954 150.71 167.981C150.13 168.851 149.56 169.721 149 170.581C150.17 170.181 152.25 169.851 153.36 171.901C154.07 173.191 154.14 175.331 154.21 177.391C154.34 181.091 154.49 185.291 158.35 186.391C160.665 187.017 163.082 187.177 165.46 186.861C166.162 186.708 166.888 186.708 167.59 186.861C168.062 187.197 168.568 187.482 169.1 187.711L169.69 187.061L173.83 187.121C172.171 186.589 170.567 185.899 169.04 185.061C168.03 184.321 166.76 184.441 165.26 184.571Z" fill="#3A1C60"/>
<g opacity="0.5">
<path d="M237.03 186.621C236.86 184.531 236.7 182.551 237.55 181.281C237.946 180.687 238.38 180.119 238.85 179.581L237.59 177.581C236.849 178.334 236.179 179.154 235.59 180.031C234.3 181.971 234.49 184.441 234.69 186.841C234.85 188.931 235.01 190.901 234.16 192.181C233.43 193.271 232.72 193.181 230.77 192.781C228.921 192.248 226.959 192.248 225.11 192.781C224.303 193.076 223.581 193.564 223.005 194.202C222.43 194.839 222.02 195.608 221.81 196.441C222.44 196.991 223.09 197.541 223.75 198.071C224.02 196.641 224.62 195.371 225.84 194.971C227.305 194.571 228.853 194.588 230.31 195.021C232.25 195.421 234.46 195.881 236.08 193.441C237.39 191.491 237.19 189.021 237.03 186.621Z" fill="white"/>
<path d="M212.42 187.101L213.18 187.951C213.866 187.668 214.519 187.313 215.13 186.891C215.831 186.738 216.558 186.738 217.26 186.891C219.637 187.207 222.054 187.047 224.37 186.421C228.24 185.311 228.37 181.111 228.51 177.421C228.58 175.361 228.65 173.221 229.36 171.931C229.693 171.297 230.237 170.799 230.897 170.522C231.558 170.245 232.294 170.206 232.98 170.411C232.47 169.621 231.98 168.831 231.41 168.041C230.547 168.112 229.718 168.405 229.003 168.892C228.287 169.38 227.711 170.044 227.33 170.821C226.33 172.591 226.28 175.011 226.2 177.341C226.07 181.211 225.83 183.611 223.74 184.201C221.698 184.753 219.565 184.889 217.47 184.601C215.96 184.471 214.66 184.351 213.68 185.131C212.171 185.948 210.587 186.618 208.95 187.131L212.42 187.101Z" fill="white"/>
<path d="M157.6 192.771C155.751 192.238 153.789 192.238 151.94 192.771C149.99 193.171 149.28 193.261 148.55 192.171C147.7 190.891 147.86 188.921 148.03 186.831C148.22 184.431 148.41 181.961 147.12 180.021C146.455 178.991 145.673 178.041 144.79 177.191L143.53 179.191C144.15 179.834 144.709 180.534 145.2 181.281C146.05 182.551 145.89 184.531 145.72 186.621C145.53 189.021 145.33 191.491 146.63 193.431C148.25 195.871 150.46 195.431 152.4 195.011C153.856 194.578 155.404 194.561 156.87 194.961C157.407 195.196 157.874 195.566 158.224 196.036C158.575 196.506 158.797 197.059 158.87 197.641C159.52 197.111 160.15 196.571 160.77 196.021C160.525 195.273 160.112 194.591 159.562 194.028C159.013 193.464 158.341 193.034 157.6 192.771Z" fill="white"/>
<path d="M165.26 184.571C163.161 184.859 161.026 184.723 158.98 184.171C156.89 183.581 156.65 181.171 156.52 177.311C156.44 174.981 156.36 172.561 155.39 170.791C154.959 169.925 154.29 169.2 153.46 168.702C152.631 168.204 151.677 167.954 150.71 167.981C150.13 168.851 149.56 169.721 149 170.581C150.17 170.181 152.25 169.851 153.36 171.901C154.07 173.191 154.14 175.331 154.21 177.391C154.34 181.091 154.49 185.291 158.35 186.391C160.665 187.017 163.082 187.177 165.46 186.861C166.162 186.708 166.888 186.708 167.59 186.861C168.062 187.197 168.568 187.482 169.1 187.711L169.69 187.061L173.83 187.121C172.171 186.589 170.567 185.899 169.04 185.061C168.03 184.321 166.76 184.441 165.26 184.571Z" fill="white"/>
</g>
</g>
<path d="M244.67 171.551C241.86 176.651 239.51 180.721 239.51 180.721C239.51 180.721 226.76 159.721 222.3 156.181C217.84 152.641 201.3 149.491 201.3 149.491C194.531 148.43 187.639 148.43 180.87 149.491C180.87 149.491 164.3 152.671 159.87 156.181C155.44 159.691 142.65 180.721 142.65 180.721C142.65 180.721 140.11 176.311 137.15 170.921L128.38 176.261C130.94 185.051 133.61 193.481 135 195.701C138.19 200.801 141.7 207.181 150.3 203.351C158.9 199.521 169.75 187.101 169.75 187.101L187.94 187.381H189.31H190.46L212.46 187.101C212.46 187.101 223.3 199.531 231.9 203.351C240.5 207.171 244.02 200.801 247.2 195.701C248.6 193.471 251.28 185.011 253.85 176.191L244.67 171.551Z" stroke="#263238" stroke-width="1.23197" stroke-linecap="round" stroke-linejoin="round"/>
<path d="M163.65 171.801C163.65 171.801 159.51 180.721 160.47 186.461C160.922 188.774 161.239 191.111 161.42 193.461C161.42 193.461 155.42 210.041 154.42 216.091C153.985 218.606 154.262 221.193 155.22 223.559C156.178 225.925 157.778 227.976 159.84 229.481C163.35 232.031 211.16 232.671 218.49 230.761C225.82 228.851 225.18 221.831 224.86 215.461C224.54 209.091 222.03 195.391 222.03 195.391C222.03 195.391 223.03 175.941 218.85 171.161" fill="white"/>
<mask id="mask1_45_172" style="mask-type:luminance" maskUnits="userSpaceOnUse" x="154" y="171" width="72" height="61">
<path d="M163.65 171.801C163.65 171.801 159.51 180.721 160.47 186.461C160.922 188.774 161.239 191.111 161.42 193.461C161.42 193.461 155.42 210.041 154.42 216.091C153.985 218.606 154.262 221.193 155.22 223.559C156.178 225.925 157.778 227.976 159.84 229.481C163.35 232.031 211.16 232.671 218.49 230.761C225.82 228.851 225.18 221.831 224.86 215.461C224.54 209.091 222.03 195.391 222.03 195.391C222.03 195.391 223.03 175.941 218.85 171.161" fill="white"/>
</mask>
<g mask="url(#mask1_45_172)">
<path d="M200.24 184.611C198.541 184.531 196.939 183.796 195.77 182.561C191.42 178.561 188.52 177.901 185.44 180.141L184.03 181.221C180.84 183.661 177.82 185.961 173.1 183.051C172.02 182.391 171.04 181.681 170.18 181.051C167.01 178.751 165.63 177.891 163.36 179.751C161.67 181.131 160.36 181.951 158.86 181.751C156.95 181.521 155.61 179.751 152.95 176.191L152.77 175.951C152.384 175.343 151.872 174.825 151.268 174.433C150.664 174.042 149.982 173.785 149.27 173.681C147.756 173.71 146.31 174.31 145.22 175.361C145.113 175.468 144.986 175.553 144.846 175.611C144.706 175.67 144.556 175.7 144.405 175.7C144.253 175.7 144.103 175.67 143.964 175.611C143.824 175.553 143.697 175.468 143.59 175.361C143.481 175.255 143.395 175.128 143.336 174.988C143.277 174.848 143.247 174.698 143.247 174.546C143.247 174.394 143.277 174.244 143.336 174.104C143.395 173.964 143.481 173.837 143.59 173.731C145.151 172.208 147.25 171.364 149.43 171.381C150.476 171.495 151.484 171.839 152.381 172.389C153.279 172.939 154.043 173.681 154.62 174.561L154.79 174.801C156.85 177.541 158.2 179.351 159.14 179.461C159.67 179.521 160.51 179.071 161.9 177.941C165.63 174.881 168.5 176.941 171.54 179.161C172.41 179.791 173.31 180.441 174.31 181.061C177.68 183.141 179.54 181.721 182.63 179.371C183.1 179.001 183.63 178.631 184.11 178.261C189.23 174.531 193.68 177.471 197.36 180.841C200.11 183.361 201.85 182.251 205.5 179.501C206.2 178.981 206.93 178.421 207.72 177.881L208.08 177.631C212.79 174.361 213.31 174.631 219.68 178.161L221.39 179.101C223.6 180.321 224.96 181.101 225.59 181.031C226.22 180.961 226.68 180.341 227.89 178.971C228.38 178.401 228.97 177.741 229.69 176.971C234.85 171.441 236.54 171.811 240.69 173.701L241.02 173.851C241.298 173.977 241.515 174.208 241.623 174.494C241.731 174.78 241.721 175.097 241.595 175.376C241.469 175.654 241.238 175.871 240.952 175.979C240.666 176.087 240.348 176.077 240.07 175.951L239.74 175.801C236.3 174.231 235.68 173.951 231.38 178.551C230.69 179.301 230.12 179.941 229.63 180.501C226.31 184.271 225.63 184.071 220.28 181.121L218.58 180.181C212.94 177.081 212.94 177.081 209.41 179.531L209.04 179.781C208.28 180.311 207.58 180.841 206.9 181.351C204.67 183.011 202.56 184.611 200.24 184.611ZM206.86 192.451C207.54 191.941 208.24 191.401 209 190.881L209.37 190.631C212.9 188.171 212.9 188.181 218.54 191.281L220.24 192.221C225.57 195.171 226.24 195.371 229.59 191.601C230.08 191.041 230.65 190.391 231.34 189.651C235.64 185.041 236.26 185.331 239.7 186.901L240.03 187.051C240.308 187.177 240.626 187.187 240.912 187.079C241.198 186.971 241.429 186.754 241.555 186.476C241.681 186.197 241.691 185.88 241.583 185.594C241.475 185.308 241.258 185.077 240.98 184.951L240.65 184.801C236.52 182.911 234.82 182.541 229.65 188.071C228.93 188.841 228.34 189.501 227.85 190.071C226.64 191.441 226.04 192.071 225.55 192.131C225.06 192.191 223.55 191.421 221.35 190.201L219.64 189.261C213.27 185.751 212.75 185.461 208.04 188.731L207.68 188.981C206.89 189.521 206.16 190.071 205.46 190.601C201.81 193.351 200.07 194.461 197.32 191.941C193.64 188.571 189.19 185.621 184.07 189.351C183.55 189.731 183.07 190.101 182.59 190.471C179.5 192.821 177.64 194.241 174.27 192.161C173.27 191.541 172.37 190.891 171.5 190.261C168.5 188.061 165.59 185.981 161.86 189.041C160.47 190.171 159.66 190.631 159.1 190.561C158.16 190.451 156.81 188.641 154.75 185.901L154.58 185.661C154.003 184.781 153.239 184.039 152.341 183.489C151.444 182.939 150.436 182.595 149.39 182.481C147.21 182.464 145.111 183.308 143.55 184.831C143.441 184.937 143.355 185.064 143.296 185.204C143.237 185.344 143.207 185.494 143.207 185.646C143.207 185.798 143.237 185.948 143.296 186.088C143.355 186.228 143.441 186.355 143.55 186.461C143.657 186.568 143.784 186.653 143.924 186.711C144.064 186.77 144.213 186.8 144.365 186.8C144.516 186.8 144.666 186.77 144.806 186.711C144.946 186.653 145.073 186.568 145.18 186.461C146.27 185.41 147.716 184.81 149.23 184.781C149.944 184.88 150.628 185.134 151.232 185.527C151.837 185.919 152.348 186.439 152.73 187.051L152.91 187.291C155.57 190.841 156.91 192.621 158.82 192.851C160.28 193.031 161.63 192.211 163.32 190.851C165.59 189.001 166.97 189.851 170.14 192.161C171 192.791 171.98 193.501 173.06 194.161C177.78 197.071 180.8 194.771 183.99 192.331L185.43 191.251C188.51 189.011 191.43 189.691 195.76 193.671C196.936 194.89 198.538 195.606 200.23 195.671C202.56 195.681 204.67 194.091 206.86 192.451Z" fill="#3A1C60"/>
<path opacity="0.5" d="M200.24 184.611C198.541 184.531 196.939 183.796 195.77 182.561C191.42 178.561 188.52 177.901 185.44 180.141L184.03 181.221C180.84 183.661 177.82 185.961 173.1 183.051C172.02 182.391 171.04 181.681 170.18 181.051C167.01 178.751 165.63 177.891 163.36 179.751C161.67 181.131 160.36 181.951 158.86 181.751C156.95 181.521 155.61 179.751 152.95 176.191L152.77 175.951C152.384 175.343 151.872 174.825 151.268 174.433C150.664 174.042 149.982 173.785 149.27 173.681C147.756 173.71 146.31 174.31 145.22 175.361C145.113 175.468 144.986 175.553 144.846 175.611C144.706 175.67 144.556 175.7 144.405 175.7C144.253 175.7 144.103 175.67 143.964 175.611C143.824 175.553 143.697 175.468 143.59 175.361C143.481 175.255 143.395 175.128 143.336 174.988C143.277 174.848 143.247 174.698 143.247 174.546C143.247 174.394 143.277 174.244 143.336 174.104C143.395 173.964 143.481 173.837 143.59 173.731C145.151 172.208 147.25 171.364 149.43 171.381C150.476 171.495 151.484 171.839 152.381 172.389C153.279 172.939 154.043 173.681 154.62 174.561L154.79 174.801C156.85 177.541 158.2 179.351 159.14 179.461C159.67 179.521 160.51 179.071 161.9 177.941C165.63 174.881 168.5 176.941 171.54 179.161C172.41 179.791 173.31 180.441 174.31 181.061C177.68 183.141 179.54 181.721 182.63 179.371C183.1 179.001 183.63 178.631 184.11 178.261C189.23 174.531 193.68 177.471 197.36 180.841C200.11 183.361 201.85 182.251 205.5 179.501C206.2 178.981 206.93 178.421 207.72 177.881L208.08 177.631C212.79 174.361 213.31 174.631 219.68 178.161L221.39 179.101C223.6 180.321 224.96 181.101 225.59 181.031C226.22 180.961 226.68 180.341 227.89 178.971C228.38 178.401 228.97 177.741 229.69 176.971C234.85 171.441 236.54 171.811 240.69 173.701L241.02 173.851C241.298 173.977 241.515 174.208 241.623 174.494C241.731 174.78 241.721 175.097 241.595 175.376C241.469 175.654 241.238 175.871 240.952 175.979C240.666 176.087 240.348 176.077 240.07 175.951L239.74 175.801C236.3 174.231 235.68 173.951 231.38 178.551C230.69 179.301 230.12 179.941 229.63 180.501C226.31 184.271 225.63 184.071 220.28 181.121L218.58 180.181C212.94 177.081 212.94 177.081 209.41 179.531L209.04 179.781C208.28 180.311 207.58 180.841 206.9 181.351C204.67 183.011 202.56 184.611 200.24 184.611ZM206.86 192.451C207.54 191.941 208.24 191.401 209 190.881L209.37 190.631C212.9 188.171 212.9 188.181 218.54 191.281L220.24 192.221C225.57 195.171 226.24 195.371 229.59 191.601C230.08 191.041 230.65 190.391 231.34 189.651C235.64 185.041 236.26 185.331 239.7 186.901L240.03 187.051C240.308 187.177 240.626 187.187 240.912 187.079C241.198 186.971 241.429 186.754 241.555 186.476C241.681 186.197 241.691 185.88 241.583 185.594C241.475 185.308 241.258 185.077 240.98 184.951L240.65 184.801C236.52 182.911 234.82 182.541 229.65 188.071C228.93 188.841 228.34 189.501 227.85 190.071C226.64 191.441 226.04 192.071 225.55 192.131C225.06 192.191 223.55 191.421 221.35 190.201L219.64 189.261C213.27 185.751 212.75 185.461 208.04 188.731L207.68 188.981C206.89 189.521 206.16 190.071 205.46 190.601C201.81 193.351 200.07 194.461 197.32 191.941C193.64 188.571 189.19 185.621 184.07 189.351C183.55 189.731 183.07 190.101 182.59 190.471C179.5 192.821 177.64 194.241 174.27 192.161C173.27 191.541 172.37 190.891 171.5 190.261C168.5 188.061 165.59 185.981 161.86 189.041C160.47 190.171 159.66 190.631 159.1 190.561C158.16 190.451 156.81 188.641 154.75 185.901L154.58 185.661C154.003 184.781 153.239 184.039 152.341 183.489C151.444 182.939 150.436 182.595 149.39 182.481C147.21 182.464 145.111 183.308 143.55 184.831C143.441 184.937 143.355 185.064 143.296 185.204C143.237 185.344 143.207 185.494 143.207 185.646C143.207 185.798 143.237 185.948 143.296 186.088C143.355 186.228 143.441 186.355 143.55 186.461C143.657 186.568 143.784 186.653 143.924 186.711C144.064 186.77 144.213 186.8 144.365 186.8C144.516 186.8 144.666 186.77 144.806 186.711C144.946 186.653 145.073 186.568 145.18 186.461C146.27 185.41 147.716 184.81 149.23 184.781C149.944 184.88 150.628 185.134 151.232 185.527C151.837 185.919 152.348 186.439 152.73 187.051L152.91 187.291C155.57 190.841 156.91 192.621 158.82 192.851C160.28 193.031 161.63 192.211 163.32 190.851C165.59 189.001 166.97 189.851 170.14 192.161C171 192.791 171.98 193.501 173.06 194.161C177.78 197.071 180.8 194.771 183.99 192.331L185.43 191.251C188.51 189.011 191.43 189.691 195.76 193.671C196.936 194.89 198.538 195.606 200.23 195.671C202.56 195.681 204.67 194.091 206.86 192.451Z" fill="white"/>
</g>
<path d="M163.65 171.801C163.65 171.801 159.51 180.721 160.47 186.461C160.922 188.774 161.239 191.111 161.42 193.461C161.42 193.461 155.42 210.041 154.42 216.091C153.985 218.606 154.262 221.193 155.22 223.559C156.178 225.925 157.778 227.976 159.84 229.481C163.35 232.031 211.16 232.671 218.49 230.761C225.82 228.851 225.18 221.831 224.86 215.461C224.54 209.091 222.03 195.391 222.03 195.391C222.03 195.391 223.03 175.941 218.85 171.161" stroke="#263238" stroke-width="1.23197" stroke-linecap="round" stroke-linejoin="round"/>
<path d="M180.84 149.491L179.48 149.761C179.349 150.352 179.279 150.955 179.27 151.561C179.27 157.631 185.77 162.561 193.78 162.561C201.79 162.561 208.28 157.631 208.28 151.561C208.28 151.381 208.28 151.221 208.28 151.041C204.41 150.041 201.28 149.491 201.28 149.491C194.508 148.429 187.612 148.429 180.84 149.491Z" fill="#3A1C60" stroke="#263238" stroke-width="1.23197" stroke-linecap="round" stroke-linejoin="round"/>
<path d="M184.03 143.431C184.03 143.431 183.03 151.081 184.03 153.631C185.03 156.181 191.03 160.961 197.1 159.051C199.082 158.429 200.821 157.205 202.075 155.549C203.33 153.893 204.037 151.887 204.1 149.811V140.891L184.34 141.531L184.03 143.431Z" fill="#9C9C9C" stroke="#263238" stroke-width="1.23197" stroke-linecap="round" stroke-linejoin="round"/>
<path d="M194.25 140.241C206.748 140.241 216.88 130.324 216.88 118.091C216.88 105.858 206.748 95.9409 194.25 95.9409C181.751 95.9409 171.62 105.858 171.62 118.091C171.62 130.324 181.751 140.241 194.25 140.241Z" fill="#263238" stroke="#263238" stroke-width="1.23197" stroke-linecap="round" stroke-linejoin="round"/>
<path d="M179.91 125.581C179.91 125.581 178 121.121 176.72 125.261C175.44 129.401 178.32 134.511 180.23 134.821C182.14 135.131 179.91 125.581 179.91 125.581Z" fill="#9C9C9C" stroke="#263238" stroke-width="1.23197" stroke-linecap="round" stroke-linejoin="round"/>
<path d="M207.46 125.581C207.46 125.581 209.37 121.121 210.65 125.261C211.93 129.401 209.05 134.511 207.14 134.821C205.23 135.131 207.46 125.581 207.46 125.581Z" fill="#9C9C9C" stroke="#263238" stroke-width="1.23197" stroke-linecap="round" stroke-linejoin="round"/>
<path d="M203.67 110.691C202.815 110.04 201.834 109.573 200.789 109.32C199.744 109.067 198.658 109.033 197.6 109.221C195.658 109.601 193.676 109.742 191.7 109.641C188.52 109.331 185.97 108.051 183.42 110.641C180.87 113.231 179.59 124.981 179.59 131.041C179.59 137.101 184.03 145.661 187.24 147.891C190.45 150.121 199.35 149.811 201.58 147.891C203.81 145.971 207.32 138.971 207.96 133.231C208.6 127.491 207.32 116.341 206.05 113.471C205.488 112.369 204.672 111.416 203.67 110.691Z" fill="#9C9C9C" stroke="#263238" stroke-width="1.23197" stroke-linecap="round" stroke-linejoin="round"/>
<path d="M189.49 126.531C190.147 126.531 190.68 125.658 190.68 124.581C190.68 123.504 190.147 122.631 189.49 122.631C188.833 122.631 188.3 123.504 188.3 124.581C188.3 125.658 188.833 126.531 189.49 126.531Z" fill="#263238"/>
<path d="M200.08 124.581C200.08 125.661 199.55 126.531 198.89 126.531C198.23 126.531 197.7 125.661 197.7 124.581C197.7 123.501 198.24 122.631 198.89 122.631C199.54 122.631 200.08 123.511 200.08 124.581Z" fill="#263238"/>
<path d="M195.65 135.611C195.65 136.681 195.12 137.551 194.46 137.551C193.8 137.551 193.27 136.681 193.27 135.611C193.27 134.541 193.8 133.661 194.46 133.661C195.12 133.661 195.65 134.531 195.65 135.611Z" fill="#263238"/>
<path d="M192.08 126.961C190.08 130.091 193.88 132.101 196.41 130.201C198.14 128.901 196.41 126.961 196.41 126.961" fill="#9C9C9C"/>
<path d="M192.08 126.961C190.08 130.091 193.88 132.101 196.41 130.201C198.14 128.901 196.41 126.961 196.41 126.961" stroke="#263238" stroke-width="1.23197" stroke-linecap="round" stroke-linejoin="round"/>
<path d="M185.38 120.261C185.38 120.261 188.62 117.261 191.87 118.741" stroke="#263238" stroke-width="1.23197" stroke-linecap="round" stroke-linejoin="round"/>
<path d="M197.27 118.961C197.27 118.961 200.27 117.011 203.11 120.691" stroke="#263238" stroke-width="1.23197" stroke-linecap="round" stroke-linejoin="round"/>
<path d="M96.8297 331.461C96.8297 331.461 77.6797 335.211 77.6797 337.161C77.6797 339.111 102.08 344.651 104.68 344.971C107.28 345.291 107.68 332.731 107.68 332.731L96.8297 331.461Z" fill="white" stroke="#263238" stroke-width="1.23197" stroke-linecap="round" stroke-linejoin="round"/>
<path d="M106.28 343.101L78.9597 336.101C78.1597 336.471 77.6797 336.831 77.6797 337.101C77.6797 339.101 102.08 344.591 104.68 344.911C105.35 345.051 105.87 344.281 106.28 343.101Z" fill="#3A1C60" stroke="#263238" stroke-width="1.23197" stroke-linecap="round" stroke-linejoin="round"/>
<path d="M146.56 333.691C146.56 333.691 127.13 342.041 128.43 344.001C129.73 345.961 155.11 345.001 157.71 344.651C160.31 344.301 157.71 332.731 157.71 332.731L146.56 333.691Z" fill="white" stroke="#263238" stroke-width="1.23197" stroke-linecap="round" stroke-linejoin="round"/>
<path d="M129.03 342.771C128.46 343.281 128.2 343.711 128.39 344.001C129.69 345.951 155.07 345.001 157.67 344.651C158.3 344.571 158.62 343.831 158.75 342.771H129.03Z" fill="#3A1C60" stroke="#263238" stroke-width="1.23197" stroke-linecap="round" stroke-linejoin="round"/>
<path d="M67.1099 205.601H140.44V202.641H67.1099V205.601Z" fill="white" stroke="#263238" stroke-width="1.23197" stroke-linecap="round" stroke-linejoin="round"/>
<path d="M46.4298 205.601H119.76V202.641H46.4298V205.601Z" fill="white" stroke="#263238" stroke-width="1.23197" stroke-linecap="round" stroke-linejoin="round"/>
<path d="M54.5998 197.381H115.75L109.16 150.701H48.0098L54.5998 197.381Z" fill="white" stroke="#263238" stroke-width="1.23197" stroke-linecap="round" stroke-linejoin="round"/>
<path d="M52.07 197.381H113.22L106.63 150.701H45.48L52.07 197.381Z" fill="#263238" stroke="#263238" stroke-width="1.23197" stroke-linecap="round" stroke-linejoin="round"/>
<path d="M70.8099 175.681L64.6699 205.601H80.4499L86.5899 175.681H70.8099ZM81.5099 184.561C81.4809 184.682 81.4119 184.791 81.3141 184.869C81.2162 184.947 81.095 184.99 80.9699 184.991L72.0299 184.891C71.9457 184.89 71.8628 184.87 71.7872 184.833C71.7117 184.796 71.6455 184.742 71.5936 184.676C71.5417 184.61 71.5054 184.532 71.4875 184.45C71.4695 184.368 71.4704 184.283 71.4899 184.201L72.2999 180.851C72.3294 180.727 72.3998 180.618 72.4997 180.539C72.5996 180.461 72.7231 180.419 72.8499 180.421L81.7899 180.511C81.8728 180.511 81.9545 180.531 82.0289 180.567C82.1032 180.604 82.1683 180.657 82.2193 180.723C82.2703 180.788 82.3058 180.864 82.3232 180.945C82.3407 181.026 82.3395 181.11 82.3199 181.191L81.5099 184.561Z" fill="white" stroke="#263238" stroke-width="1.23197" stroke-linecap="round" stroke-linejoin="round"/>
<path d="M57.8354 149.916C59.2639 143.864 55.5155 137.799 49.463 136.371C43.4106 134.942 37.3461 138.691 35.9176 144.743C34.4891 150.796 38.2375 156.86 44.29 158.289C50.3424 159.717 56.4069 155.969 57.8354 149.916Z" fill="#3A1C60" stroke="#263238" stroke-width="1.23197" stroke-linecap="round" stroke-linejoin="round"/>
<path d="M46.7197 149.631L43.3997 153.411C43.2545 153.602 43.0788 153.767 42.8797 153.901C42.6518 154.074 42.3848 154.188 42.1022 154.234C41.8196 154.279 41.5302 154.254 41.2597 154.161C41.0501 154.099 40.858 153.989 40.6983 153.839C40.5386 153.69 40.4159 153.506 40.3397 153.301C40.2278 152.963 40.2165 152.6 40.307 152.255C40.3976 151.911 40.5861 151.6 40.8497 151.361L44.6997 147.281L41.0297 143.021C40.7485 142.682 40.5868 142.261 40.5697 141.821C40.5544 141.64 40.5768 141.457 40.6353 141.285C40.6938 141.113 40.7872 140.955 40.9097 140.821C41.1483 140.571 41.4432 140.383 41.7697 140.271C42.1284 140.142 42.5209 140.142 42.8797 140.271C43.3107 140.435 43.6856 140.72 43.9597 141.091L47.1497 144.891L50.1497 141.401C50.3048 141.179 50.4937 140.984 50.7097 140.821C50.9347 140.61 51.2152 140.468 51.5181 140.412C51.8209 140.355 52.1337 140.386 52.4197 140.501C52.6247 140.575 52.8118 140.692 52.9686 140.844C53.1254 140.995 53.2484 141.178 53.3297 141.381C53.4367 141.614 53.4719 141.873 53.431 142.126C53.39 142.379 53.2747 142.614 53.0997 142.801L49.0997 147.171L53.0997 151.861C53.2268 152.019 53.3311 152.194 53.4097 152.381C53.5064 152.624 53.5342 152.888 53.4901 153.146C53.446 153.404 53.3316 153.644 53.1597 153.841C53.0066 154.036 52.8128 154.195 52.5916 154.308C52.3705 154.42 52.1275 154.482 51.8797 154.491C51.5113 154.498 51.1475 154.409 50.8233 154.234C50.4992 154.059 50.2259 153.803 50.0297 153.491L46.7197 149.631Z" fill="#263238"/>
<path d="M191.03 222.621L187.85 342.331C187.832 343.093 187.516 343.818 186.971 344.35C186.425 344.883 185.693 345.181 184.93 345.181C184.165 345.173 183.434 344.866 182.892 344.326C182.35 343.786 182.041 343.056 182.03 342.291L180.47 222.621H191.03Z" fill="white" stroke="#263238" stroke-width="1.23197" stroke-linecap="round" stroke-linejoin="round"/>
<path d="M152.37 222.621L149.2 342.331C149.181 343.095 148.864 343.821 148.317 344.354C147.769 344.887 147.034 345.184 146.27 345.181C145.501 345.181 144.762 344.877 144.216 344.336C143.669 343.795 143.358 343.06 143.35 342.291L141.78 222.621H152.37Z" fill="white" stroke="#263238" stroke-width="1.23197" stroke-linecap="round" stroke-linejoin="round"/>
<path d="M56.7502 222.621L53.5802 342.331C53.5618 343.095 53.2448 343.821 52.697 344.354C52.1492 344.887 51.4143 345.184 50.6502 345.181C49.8809 345.181 49.1427 344.877 48.5959 344.336C48.0492 343.795 47.7381 343.06 47.7302 342.291L46.1602 222.621H56.7502Z" fill="white" stroke="#263238" stroke-width="1.23197" stroke-linecap="round" stroke-linejoin="round"/>
<path d="M18.0302 222.621L14.9002 342.331C14.8823 343.085 14.5735 343.802 14.0386 344.333C13.5037 344.864 12.784 345.168 12.0302 345.181C11.643 345.19 11.2577 345.123 10.8967 344.982C10.5357 344.841 10.2062 344.631 9.9272 344.362C9.6482 344.093 9.42528 343.772 9.27132 343.416C9.11735 343.061 9.03541 342.678 9.03024 342.291L7.49023 222.621H18.0302Z" fill="white" stroke="#263238" stroke-width="1.23197" stroke-linecap="round" stroke-linejoin="round"/>
<path d="M3.96005 223.881L194.81 223.881V209.551L3.96005 209.551V223.881Z" fill="white" stroke="#263238" stroke-width="1.23197" stroke-linecap="round" stroke-linejoin="round"/>
<path d="M141.5 223.881H194.81V209.551H141.5V223.881Z" fill="white" stroke="#263238" stroke-width="1.23197" stroke-linecap="round" stroke-linejoin="round"/>
<path d="M3.96005 216.711L194.81 216.711V209.551L3.96005 209.551V216.711Z" fill="#263238" stroke="#263238" stroke-width="1.23197" stroke-linecap="round" stroke-linejoin="round"/>
<path d="M1.00002 212.511L197.77 212.511V204.621L1.00002 204.621V212.511Z" fill="#3A1C60" stroke="#263238" stroke-width="1.23197" stroke-linecap="round" stroke-linejoin="round"/>
<path d="M0.999969 212.511L137.96 212.511V204.621L0.999969 204.621V212.511Z" fill="#3A1C60" stroke="#263238" stroke-width="1.23197" stroke-linecap="round" stroke-linejoin="round"/>
</svg>
