<svg id="vuesax_bulk_note-remove" data-name="vuesax/bulk/note-remove" xmlns="http://www.w3.org/2000/svg" width="28" height="28" viewBox="0 0 28 28">
  <g id="note-remove">
    <path id="Vector" d="M5.8,0H2.368A2.177,2.177,0,0,0,0,2.368V5.8A2.177,2.177,0,0,0,2.368,8.167H5.8A2.177,2.177,0,0,0,8.167,5.8V2.368A2.177,2.177,0,0,0,5.8,0Zm.583,5.32a.753.753,0,0,1,0,1.062.8.8,0,0,1-.537.21.772.772,0,0,1-.525-.21L4.072,5.145,2.858,6.382a.786.786,0,0,1-.548.21.772.772,0,0,1-.525-.21.753.753,0,0,1,0-1.062L3.033,4.083,1.8,2.858A.751.751,0,0,1,2.858,1.8L4.072,3.033,5.308,1.8A.751.751,0,0,1,6.37,2.858L5.145,4.083Z" transform="translate(1.167 1.167)" fill="#672de1"/>
    <path id="Vector-2" data-name="Vector" d="M16.485,0H6.16a2.725,2.725,0,0,1,.257,1.2v3.43A2.177,2.177,0,0,1,4.048,7H.618A2.642,2.642,0,0,1,0,6.93V17.652a5.681,5.681,0,0,0,5.682,5.682h9.3a.733.733,0,0,0,.548-.233l6.428-6.475a.688.688,0,0,0,.21-.5V5.682A5.681,5.681,0,0,0,16.485,0Z" transform="translate(2.917 2.333)" fill="#672de1" opacity="0.4"/>
    <path id="Vector-3" data-name="Vector" d="M7.945.747a.688.688,0,0,1-.21.5L1.307,7.723a.733.733,0,0,1-.548.233A.754.754,0,0,1,0,7.21V3.127A3.183,3.183,0,0,1,3.22.012C4.328,0,5.868,0,7.187,0A.747.747,0,0,1,7.945.747Z" transform="translate(17.138 17.71)" fill="#672de1"/>
    <path id="Vector-4" data-name="Vector" d="M9.532,1.75H.875A.875.875,0,0,1,.875,0H9.532a.875.875,0,0,1,0,1.75Z" transform="translate(7.712 13.078)" fill="#672de1"/>
    <path id="Vector-5" data-name="Vector" d="M6.288,1.75H.875A.875.875,0,0,1,.875,0H6.288a.875.875,0,0,1,0,1.75Z" transform="translate(7.712 17.407)" fill="#672de1"/>
    <path id="Vector-6" data-name="Vector" d="M0,0H28V28H0Z" fill="none" opacity="0"/>
  </g>
</svg>
