<svg id="vuesax_bulk_calendar-tick" data-name="vuesax/bulk/calendar-tick" xmlns="http://www.w3.org/2000/svg" width="28" height="28" viewBox="0 0 28 28">
  <g id="calendar-tick">
    <path id="Vector" d="M0,0H28V28H0Z" fill="none" opacity="0"/>
    <path id="Vector-2" data-name="Vector" d="M16,2.695V.875a.875.875,0,1,0-1.75,0v1.75H6.663V.875a.875.875,0,1,0-1.75,0v1.82A4.955,4.955,0,0,0,0,7.653a.586.586,0,0,0,.583.618h19.74a.579.579,0,0,0,.583-.618A4.955,4.955,0,0,0,16,2.695Z" transform="translate(3.545 1.458)" fill="#50cd89"/>
    <path id="Vector-3" data-name="Vector" d="M21,1.178v2.03a1.149,1.149,0,0,1-1.33,1.143,7.126,7.126,0,0,0-1-.082,6.428,6.428,0,0,0-6.417,6.417,7.206,7.206,0,0,0,.432,1.96,1.164,1.164,0,0,1-1.108,1.54H5.833C1.75,14.187,0,11.853,0,8.353V1.167A1.17,1.17,0,0,1,1.167,0H19.833A1.188,1.188,0,0,1,21,1.178Z" transform="translate(3.5 11.468)" fill="#bbf0d4"/>
    <path id="Vector-4" data-name="Vector" d="M4.667,0A4.665,4.665,0,0,0,0,4.667a4.574,4.574,0,0,0,.677,2.4,4.649,4.649,0,0,0,7.98,0,4.574,4.574,0,0,0,.677-2.4A4.665,4.665,0,0,0,4.667,0ZM7.082,4.165,4.6,6.463A.89.89,0,0,1,4,6.7a.865.865,0,0,1-.618-.257L2.228,5.285A.874.874,0,0,1,3.465,4.048l.56.56L5.892,2.882a.875.875,0,0,1,1.19,1.283Z" transform="translate(17.5 17.5)" fill="#50cd89"/>
    <path id="Vector-5" data-name="Vector" d="M1.167,2.334A1.227,1.227,0,0,1,.338,2,1.227,1.227,0,0,1,0,1.168,1.227,1.227,0,0,1,.338.339,1.178,1.178,0,0,1,1.4.024a.742.742,0,0,1,.21.07A.884.884,0,0,1,1.82.2l.175.14a1.227,1.227,0,0,1,.338.828A1.227,1.227,0,0,1,1.995,2l-.175.14a.884.884,0,0,1-.21.105.742.742,0,0,1-.21.07A1.753,1.753,0,0,1,1.167,2.334Z" transform="translate(8.75 15.166)" fill="#292d32"/>
    <path id="Vector-6" data-name="Vector" d="M1.167,2.319A1.227,1.227,0,0,1,.338,1.98,1.227,1.227,0,0,1,0,1.152,1.227,1.227,0,0,1,.338.324a1.222,1.222,0,0,1,1.657,0,1.227,1.227,0,0,1,.338.828,1.227,1.227,0,0,1-.338.828A1.227,1.227,0,0,1,1.167,2.319Z" transform="translate(12.833 15.181)" fill="#292d32"/>
    <path id="Vector-7" data-name="Vector" d="M1.167,2.332a1.227,1.227,0,0,1-.828-.338A1.227,1.227,0,0,1,0,1.165,1.227,1.227,0,0,1,.338.337,1.2,1.2,0,0,1,.723.092,1.165,1.165,0,0,1,1.995.337a1.227,1.227,0,0,1,.338.828,1.227,1.227,0,0,1-.338.828A1.227,1.227,0,0,1,1.167,2.332Z" transform="translate(8.75 19.251)" fill="#292d32"/>
  </g>
</svg>
