<svg xmlns="http://www.w3.org/2000/svg" viewBox="0 0 32 32" id="tracking"><defs><linearGradient id="a" x1="4.75" x2="27.24" y1="27.25" y2="4.76" gradientUnits="userSpaceOnUse"><stop offset="0" stop-color="#3a3985"></stop><stop offset=".42" stop-color="#385fb5"></stop><stop offset="1" stop-color="#3499ff"></stop></linearGradient></defs><path fill="url(#a)" d="M26,21a5,5,0,0,0-4.9,4H7a4,4,0,0,1,0-8H25A6,6,0,0,0,25,5H10.9a5,5,0,1,0,0,2H25a4,4,0,0,1,2.84,6.83A4,4,0,0,1,25,15H7A6,6,0,1,0,7,27H21.1A5,5,0,1,0,26,21ZM6,9A3,3,0,1,1,9,6,3,3,0,0,1,6,9ZM26,29a3,3,0,1,1,3-3A3,3,0,0,1,26,29Z" data-name="Layer 77"></path></svg>